<?xml version="1.0" encoding="utf-8"?>
<svg xmlns="http://www.w3.org/2000/svg" xmlns:xlink="http://www.w3.org/1999/xlink">
<symbol id="cults" viewbox="0 0 69 48" fill="none">
<path fill-rule="evenodd" clip-rule="evenodd" d="M36.4328 4.86798C34.9414 4.76237 33.5599 5.49893 32.6023 6.60198C31.9302 7.3758 31.4114 8.72822 31.7963 10.976C37.0056 11.6052 36.7582 18.2573 35.2544 21.0429C33.4535 24.3795 33.7497 23.785 31.9869 23.785C33.841 26.6602 34.6 23.2587 40.1933 28.1173C41.0729 28.8814 43.6053 32.8934 46.0526 34.5954L47.5777 31.2126C50.9835 22.5044 52.9458 27.7375 59.8363 24.0769C62.5558 22.6331 68.2759 21.7847 68.2759 17.6494C68.2759 16.7744 68.0862 17.2288 67.6907 16.5046C65.9936 13.396 66.2729 12.4057 63.3273 9.3503C63.2865 9.3077 63.2262 9.24736 63.1845 9.20654L60.8002 7.00842C58.9878 5.55483 57.0583 2.99376 56.2913 2.34151C55.7726 1.90047 55.0668 1.54727 54.4949 1.28638C53.5062 0.83557 51.1485 -0.126386 50.1039 0.0138249C49.4238 0.105228 48.4095 0.697133 48.022 0.995304C45.8105 2.69648 47.2257 4.33198 47.3507 4.56271C47.8579 5.23625 47.3614 5.31346 47.4704 6.06155C47.4926 6.21329 47.6513 6.44491 47.8145 6.51413C48.3421 6.61973 48.4449 6.24169 49.5471 6.11568C50.2928 5.97458 50.4551 6.255 51.3976 6.255C53.6011 6.255 52.866 3.46852 55.6635 7.3758C56.7489 8.89239 58.3006 13.4794 58.712 15.3119C56.8331 14.8576 54.4505 13.6401 52.2418 17.0655C50.5561 16.6581 49.8681 15.8967 47.7409 15.8967C45.0577 15.8967 43.7898 17.6503 42.9589 17.6503C41.8665 17.6503 40.1454 17.2616 40.1454 16.1896C40.1454 14.3455 40.3378 13.6241 40.5639 13.2487C40.884 12.7154 41.1341 13.5557 41.2706 11.5147C41.5287 10.0194 41.4852 9.53488 40.8619 9.51713C40.7927 9.51536 40.8078 9.16572 40.7936 9.08851C40.3884 6.98978 39.6116 5.09427 36.4328 4.86798Z" fill="#FC7B88"/>
<path fill-rule="evenodd" clip-rule="evenodd" d="M39.5825 45.1149C36.9907 44.8904 33.3933 43.0241 33.3933 39.8552C33.3933 38.1602 35.8078 33.8855 36.4879 32.5509C37.7408 33.2395 38.4581 34.134 39.7013 35.0569C40.3459 35.5361 42.6771 37.1033 42.6771 37.8106C42.6771 39.3431 40.0134 43.1927 39.5825 45.1149ZM8.5897 30.1353L9.47108 30.9899L8.90004 31.7096C10.4837 33.1623 11.4591 34.5857 11.1345 35.0383C10.8047 35.4989 9.2432 34.7987 7.51591 33.4543L7.33591 33.6823C7.59128 33.9157 7.91138 34.2742 8.07541 34.8883C9.85857 37.6544 10.6344 37.1122 13.7574 38.6288C14.5359 39.0068 15.1557 39.3706 15.952 39.5641C16.9291 37.6446 16.6063 36.5629 17.0923 34.3195C18.221 29.1015 17.4434 32.802 17.947 28.7803C18.0197 28.1954 18.5172 26.9717 18.863 26.5182C20.272 25.2581 20.2684 26.2272 20.7933 25.3087C25.2525 20.498 20.0432 16.9235 23.4774 14.3633C24.67 13.7182 25.1249 13.8522 26.6429 13.8522C27.3106 11.253 31.5614 10.8598 33.7374 12.6187C34.5061 13.2408 35.3636 14.8079 35.3636 16.1887C35.3636 17.4391 35.141 15.9412 34.8945 17.6139C34.4308 20.7651 35.5081 18.2085 33.1131 22.9091C31.9312 22.8071 31.1447 22.0208 31.1447 23.7868C31.1447 25.078 32.7567 25.6459 33.9502 25.8394C38.78 26.6203 39.633 29.279 42.748 32.4799C44.0674 33.8367 46.9997 36.7031 45.6839 39.1603L43.6888 42.3683C42.9635 43.514 41.566 46.3564 40.9781 47.5091L25.2472 47.5357C24.4519 44.4795 21.3298 38.036 21.0168 36.6436C21.0886 38.3466 19.771 42.5325 17.7679 45.1548C17.6447 45.3163 17.5303 45.3137 17.3591 45.4095C14.9491 45.4095 10.1432 40.2305 8.6961 39.2136C7.78192 38.5729 6.66556 37.5541 5.57758 37.2382L5.03492 36.8593L4.91788 36.735L4.74231 36.9569C6.36497 38.4291 7.37138 39.8853 7.04241 40.3441C6.70812 40.8118 5.10941 40.085 3.35552 38.7051L2.86872 39.3201L1.98645 38.4628L2.42005 37.9162C0.764583 36.4262 -0.271081 34.9407 0.0623178 34.4757C0.401037 34.0036 2.03256 34.7517 3.81039 36.1626L4.08616 35.8148L3.83788 35.4545C3.79266 35.1013 3.68714 34.9318 3.74832 34.6008C3.81305 34.2494 4.11187 33.622 4.37433 33.3611C5.01098 32.7275 5.70084 32.7275 6.32862 32.9884L6.57955 32.6716C4.88507 31.1612 3.81837 29.6428 4.15621 29.1725C4.49847 28.6942 6.16813 29.468 7.97256 30.9145L8.5897 30.1353ZM24.3916 16.7736C24.3916 16.0778 25.3323 15.6687 26.0798 15.6048C26.0798 19.1252 28.1325 19.2406 27.4923 21.1201C27.1075 22.2498 25.0779 24.5304 23.5483 24.6627C24.803 24.0113 25.5292 22.9846 25.7163 21.6277C25.9495 18.9513 24.3286 18.8297 24.3916 16.7736Z" fill="#262626"/>
<path fill-rule="evenodd" clip-rule="evenodd" d="M63.3871 48.0001H4.88983C14.976 46.5083 51.9922 46.3415 63.3871 48.0001Z" fill="#262626"/>
</symbol>
<symbol id="fitness" viewbox="0 0 129 40" fill="none">
<path d="M6.13962 17.8063H13.7991V23.2148H6.13962V38.8441H0.206787V0.987544H15.9022V6.39607H6.13962V17.8063ZM18.7611 0.987544H24.6939V38.8426H18.7611V0.987544ZM27.284 0.987544H45.6217V6.39607H39.4185V38.8441H33.4856V6.39607H27.2824V0.987544H27.284ZM53.4978 11.4251V38.8441H48.158V0.987544H55.6024L61.6965 23.647V0.987544H66.9826V38.8426H60.887L53.4978 11.4251ZM77.1754 16.9421H85.3203V22.3506H77.1754V33.4371H87.4234V38.8457H71.2425V0.987544H87.4234V6.39607H77.1754V16.9421ZM90.336 10.073C90.336 7.00941 91.0642 4.65673 92.5205 3.01652C93.9769 1.3763 96.1613 0.55542 99.074 0.55542C101.987 0.55542 104.171 1.3763 105.627 3.01652C107.084 4.65673 107.812 7.00941 107.812 10.073V11.2625H102.203V9.69508C102.203 8.32592 101.942 7.36099 101.42 6.80186C100.899 6.24274 100.171 5.9624 99.2353 5.9624C98.3013 5.9624 97.5716 6.24274 97.0508 6.80186C96.53 7.35944 96.2689 8.32437 96.2689 9.69508C96.2689 10.993 96.5562 12.1376 97.1322 13.1288C97.7068 14.1201 98.4257 15.0571 99.2891 15.9415C100.152 16.8244 101.077 17.7072 102.067 18.59C103.054 19.4744 103.981 20.4378 104.844 21.4833C105.707 22.5287 106.426 23.7182 107.002 25.0533C107.577 26.3869 107.864 27.9558 107.864 29.7587C107.864 32.8223 107.118 35.1749 105.626 36.8152C104.136 38.4554 101.933 39.2762 99.0202 39.2762C96.1076 39.2762 93.9047 38.4554 92.413 36.8152C90.9213 35.1749 90.1747 32.8223 90.1747 29.7587V27.4323H95.785V30.1366C95.785 31.5058 96.0646 32.4629 96.6207 33.0019C97.1783 33.544 97.9249 33.8135 98.8589 33.8135C99.7945 33.8135 100.54 33.5425 101.097 33.0019C101.655 32.4614 101.933 31.5058 101.933 30.1366C101.933 28.8387 101.646 27.6941 101.07 26.7028C100.493 25.7116 99.7745 24.7745 98.9127 23.8901C98.0493 23.0073 97.123 22.1245 96.1352 21.2401C95.1459 20.3573 94.2196 19.3923 93.3578 18.3469C92.4944 17.3014 91.7755 16.1119 91.1994 14.7768C90.6233 13.4448 90.336 11.8758 90.336 10.073ZM110.51 10.073C110.51 7.00941 111.238 4.65673 112.694 3.01652C114.15 1.3763 116.335 0.55542 119.247 0.55542C122.16 0.55542 124.345 1.3763 125.801 3.01652C127.257 4.65673 127.985 7.00941 127.985 10.073V11.2625H122.377V9.69508C122.377 8.32592 122.116 7.36099 121.595 6.80186C121.074 6.24274 120.346 5.9624 119.41 5.9624C118.475 5.9624 117.747 6.24274 117.226 6.80186C116.705 7.35944 116.444 8.32437 116.444 9.69508C116.444 10.993 116.731 12.1376 117.307 13.1288C117.882 14.1201 118.601 15.0571 119.464 15.9415C120.327 16.8244 121.254 17.7072 122.242 18.59C123.229 19.4744 124.156 20.4378 125.019 21.4833C125.882 22.5287 126.601 23.7182 127.177 25.0533C127.752 26.3869 128.039 27.9558 128.039 29.7587C128.039 32.8223 127.293 35.1749 125.801 36.8152C124.308 38.4554 122.106 39.2762 119.194 39.2762C116.281 39.2762 114.078 38.4554 112.586 36.8152C111.095 35.1749 110.348 32.8223 110.348 29.7587V27.4323H115.958V30.1366C115.958 31.5058 116.238 32.4629 116.794 33.0019C117.352 33.544 118.098 33.8135 119.032 33.8135C119.966 33.8135 120.713 33.5425 121.271 33.0019C121.828 32.4614 122.108 31.5058 122.108 30.1366C122.108 28.8387 121.819 27.6941 121.245 26.7028C120.668 25.7116 119.95 24.7745 119.088 23.8901C118.224 23.0073 117.3 22.1245 116.31 21.2401C115.321 20.3573 114.396 19.3923 113.533 18.3469C112.669 17.3014 111.95 16.1119 111.374 14.7768C110.797 13.4448 110.51 11.8758 110.51 10.073Z" fill="#262626"/>
</symbol>
<symbol id="online" viewbox="0 0 103 40" fill="none">
<path d="M0.502655 10.2495C0.502655 8.88033 0.663961 7.61184 0.986564 6.44247C1.30917 5.2731 1.80382 4.26481 2.46746 3.4176C3.1311 2.57193 3.9837 1.90594 5.02525 1.4196C6.0668 0.933268 7.30498 0.69165 8.74133 0.69165C10.1777 0.69165 11.4251 0.934817 12.4851 1.4196C13.5451 1.90594 14.4161 2.57193 15.0966 3.4176C15.7787 4.26481 16.281 5.27155 16.6052 6.44247C16.9278 7.61339 17.0891 8.88188 17.0891 10.2495V29.582C17.0891 30.9497 16.9278 32.2182 16.6052 33.3891C16.2826 34.56 15.7787 35.5667 15.0966 36.4139C14.4145 37.2596 13.5435 37.9256 12.4851 38.4119C11.4251 38.8983 10.1777 39.1414 8.74133 39.1414C7.30498 39.1414 6.0668 38.8983 5.02525 38.4119C3.9837 37.9256 3.1311 37.2596 2.46746 36.4139C1.80229 35.5683 1.30917 34.56 0.986564 33.3891C0.663961 32.2182 0.502655 30.9497 0.502655 29.582V10.2495ZM2.98056 29.7447C2.98056 31.7969 3.41991 33.4975 4.30016 34.8481C5.18041 36.1987 6.66131 36.8739 8.74287 36.8739C10.826 36.8739 12.3253 36.1987 13.2409 34.8481C14.1565 33.499 14.6142 31.7969 14.6142 29.7447V10.0869C14.6142 8.03467 14.1565 6.33405 13.2409 4.98347C12.3253 3.63443 10.826 2.95914 8.74287 2.95914C6.66131 2.95914 5.18041 3.63443 4.30016 4.98347C3.41991 6.33405 2.98056 8.03467 2.98056 10.0869V29.7447ZM23.4474 38.8177H21.1861V1.01536H24.4168L35.7279 32.9306V1.01536H37.9907V38.8177H35.244L23.4474 5.11976V38.8177ZM42.2445 38.8177V1.01536H44.7224V36.5487H56.5711V38.8162H42.2445V38.8177ZM62.7651 1.01536V38.8177H60.2872V1.01536H62.7651ZM69.337 38.8177H67.0757V1.01536H70.3064L81.6174 32.9306V1.01536H83.8803V38.8177H81.1336L69.337 5.11976V38.8177ZM100.9 18.5125V20.78H90.612V36.5487H103V38.8162H88.134V1.01536H103V3.2844H90.612V18.5125H100.9Z" fill="#262626"/>
</symbol>
</svg>
