<svg width="20" height="11" viewBox="0 0 20 11" fill="none" xmlns="http://www.w3.org/2000/svg">
<path d="M19.3329 9.54736C19.3329 9.1427 19.1876 8.81067 18.9178 8.54089L11.1462 0.582519C10.7935 0.229736 10.4303 0.0533443 9.98413 0.0533443C9.53796 0.0533443 9.16443 0.21936 8.82202 0.582519L1.04004 8.54089C0.770264 8.82104 0.625 9.15308 0.625 9.54736C0.625 10.3463 1.26831 11 2.06726 11C2.46155 11 2.83508 10.834 3.12561 10.5435L9.98413 3.48779L16.8323 10.5435C17.1228 10.834 17.4963 11 17.8906 11C18.6896 11 19.3329 10.3463 19.3329 9.54736Z" fill="#262626"/>
</svg>
